# xmcd CD database file
#
# Track frame offsets:
#	150
#	17220
#	34550
#	51590
#	78280
#	103110
#	123572
#	152190
#	172785
#	215060
#
# Disc length: 4440 seconds
#
# Revision: 0
# Processed by: cddbd v1.5.1PL0 Copyright (c) Steve Scherf et al.
# Submitted via: CDex 1.51
#
DISCID=8311560a
DTITLE=Various Artist - 琉球マブヤーサウンド
DYEAR=2004
DGENRE=ポップ (一般)
TTITLE0=ボサノバ・ジトーヨー/saigenji
TTITLE1=白浜ブルース(HIFANAREMIX)/HIFANA
TTITLE2=リズム谷茶(リディム谷茶MIX)/HAKASE-SUN
TTITLE3=海ぬちんぼーらー/高田with青柳拓次
TTITLE4=ゴーゴー･チンボーラー/I-Dep
TTITLE5=島やからー/DJ SASA with ZAKKY feat.Cana
TTITLE6=島娘/KENGSHING
TTITLE7=てぃんさぐぬ花/mount sugar
TTITLE8=半かけ月/CINEMA dub MONKS feat.サトウユウ子
TTITLE9=CCCD
EXTD=YEAR: 2004
EXTT0=
EXTT1=
EXTT2=
EXTT3=
EXTT4=
EXTT5=
EXTT6=
EXTT7=
EXTT8=
EXTT9=
PLAYORDER=
